<?xml version="1.0" encoding="utf-8"?>
<!-- Generator: Adobe Illustrator 22.1.0, SVG Export Plug-In . SVG Version: 6.00 Build 0)  -->
<svg version="1.1" id="Layer_1" xmlns="http://www.w3.org/2000/svg" xmlns:xlink="http://www.w3.org/1999/xlink" x="0px" y="0px"
	 viewBox="0 0 512 512" style="enable-background:new 0 0 512 512;" xml:space="preserve">
<style type="text/css">
	.st0{display:none;}
	.st1{display:inline;}
	.st2{fill:none;stroke:#000000;stroke-miterlimit:10;}
	.st3{fill:none;}
</style>
<g id="Grid" class="st0">
	<g class="st1">
		<rect y="448" class="st2" width="64" height="64"/>
		<rect x="64" y="448" class="st2" width="64" height="64"/>
		<rect x="128" y="448" class="st2" width="64" height="64"/>
		<rect x="192" y="448" class="st2" width="64" height="64"/>
		<rect x="256" y="448" class="st2" width="64" height="64"/>
		<rect x="320" y="448" class="st2" width="64" height="64"/>
		<rect x="384" y="448" class="st2" width="64" height="64"/>
		<rect x="448" y="448" class="st2" width="64" height="64"/>
	</g>
	<g class="st1">
		<rect y="384" class="st2" width="64" height="64"/>
		<rect x="64" y="384" class="st2" width="64" height="64"/>
		<rect x="128" y="384" class="st2" width="64" height="64"/>
		<rect x="192" y="384" class="st2" width="64" height="64"/>
		<rect x="256" y="384" class="st2" width="64" height="64"/>
		<rect x="320" y="384" class="st2" width="64" height="64"/>
		<rect x="384" y="384" class="st2" width="64" height="64"/>
		<rect x="448" y="384" class="st2" width="64" height="64"/>
	</g>
	<g class="st1">
		<rect y="320" class="st2" width="64" height="64"/>
		<rect x="64" y="320" class="st2" width="64" height="64"/>
		<rect x="128" y="320" class="st2" width="64" height="64"/>
		<rect x="192" y="320" class="st2" width="64" height="64"/>
		<rect x="256" y="320" class="st2" width="64" height="64"/>
		<rect x="320" y="320" class="st2" width="64" height="64"/>
		<rect x="384" y="320" class="st2" width="64" height="64"/>
		<rect x="448" y="320" class="st2" width="64" height="64"/>
	</g>
	<g class="st1">
		<rect y="256" class="st2" width="64" height="64"/>
		<rect x="64" y="256" class="st2" width="64" height="64"/>
		<rect x="128" y="256" class="st2" width="64" height="64"/>
		<rect x="192" y="256" class="st2" width="64" height="64"/>
		<rect x="256" y="256" class="st2" width="64" height="64"/>
		<rect x="320" y="256" class="st2" width="64" height="64"/>
		<rect x="384" y="256" class="st2" width="64" height="64"/>
		<rect x="448" y="256" class="st2" width="64" height="64"/>
	</g>
	<g class="st1">
		<rect y="192" class="st2" width="64" height="64"/>
		<rect x="64" y="192" class="st2" width="64" height="64"/>
		<rect x="128" y="192" class="st2" width="64" height="64"/>
		<rect x="192" y="192" class="st2" width="64" height="64"/>
		<rect x="256" y="192" class="st2" width="64" height="64"/>
		<rect x="320" y="192" class="st2" width="64" height="64"/>
		<rect x="384" y="192" class="st2" width="64" height="64"/>
		<rect x="448" y="192" class="st2" width="64" height="64"/>
	</g>
	<g class="st1">
		<rect y="128" class="st2" width="64" height="64"/>
		<rect x="64" y="128" class="st2" width="64" height="64"/>
		<rect x="128" y="128" class="st2" width="64" height="64"/>
		<rect x="192" y="128" class="st2" width="64" height="64"/>
		<rect x="256" y="128" class="st2" width="64" height="64"/>
		<rect x="320" y="128" class="st2" width="64" height="64"/>
		<rect x="384" y="128" class="st2" width="64" height="64"/>
		<rect x="448" y="128" class="st2" width="64" height="64"/>
	</g>
	<g class="st1">
		<rect y="64" class="st2" width="64" height="64"/>
		<rect x="64" y="64" class="st2" width="64" height="64"/>
		<rect x="128" y="64" class="st2" width="64" height="64"/>
		<rect x="192" y="64" class="st2" width="64" height="64"/>
		<rect x="256" y="64" class="st2" width="64" height="64"/>
		<rect x="320" y="64" class="st2" width="64" height="64"/>
		<rect x="384" y="64" class="st2" width="64" height="64"/>
		<rect x="448" y="64" class="st2" width="64" height="64"/>
	</g>
	<g class="st1">
		<rect class="st2" width="64" height="64"/>
		<rect x="64" class="st2" width="64" height="64"/>
		<rect x="128" class="st2" width="64" height="64"/>
		<rect x="192" class="st2" width="64" height="64"/>
		<rect x="256" class="st2" width="64" height="64"/>
		<rect x="320" class="st2" width="64" height="64"/>
		<rect x="384" class="st2" width="64" height="64"/>
		<rect x="448" class="st2" width="64" height="64"/>
	</g>
</g>
<g id="Glyphs" class="st0">
	<g id="ホ" class="st1">
		<path d="M27.5,5.2h12v7H56v8.2H39.5v33.4h16.3v5H8v-5l6.4-27.7H24V29l-5.4,24.8h9V20.4H11v-8.2h16.5V5.2z M55.9,51.6h-4.2
			c-6.2-5.1-9.4-13.6-9.4-25.7L52,26c-0.1,11.5,1.2,18.3,3.8,20.5L55.9,51.6L55.9,51.6z"/>
		<rect x="5.3" class="st3" width="53.3" height="64"/>
	</g>
	<g id="ア_1_" class="st1">
		<path d="M88.6,41.7c-12.5,0-15.1-13.3-15.1-16.3v-16h44.9V18H85.6c-0.5,11.7,0.5,18.4,7.4,18.3V24.2h13.1v12.6
			c0,7.5,4.1,12,12.3,13.5v4.3c-10.6,0-18.7-4.3-24.5-12.8h-5.3V41.7z"/>
		<rect x="69.3" class="st3" width="53.3" height="64"/>
	</g>
	<g id="_x33_" class="st1">
		<path d="M137.3,51h30.2l-22.8-11v-5.8H160c2.2,0,3.9-0.6,5-1.8s1.7-2.2,1.7-3v-11c0-1.3-0.3-2.6-1.6-3.6c-1.3-0.9-3.3-1.2-5.1-1.2
			h-6.4c-6.2,0-7.3,3.3-8.6,4.8h-7.6c1.2-7.2,6.2-10.8,15.1-10.8h15.1c4.1,0,7.6,1.1,10.6,3.2s4.5,4.7,4.5,7.6v10.9
			c0,2.5-1.4,4.9-4.3,7.3s-6.5,3.6-10.8,3.6H160L182.6,51v5.4h-45.4L137.3,51L137.3,51z"/>
		<rect x="133.3" class="st3" width="53.3" height="64"/>
	</g>
	<g id="ウ" class="st1">
		<path d="M246.3,4.5v5.3h-16.6v8.3h17v20h-11.8V26.5h-21v11.3c0,7.9,4.3,13.1,12.8,15.6c0,0,5.2,1.3,12.8,1.3v4.8
			c-16.1,0-27.3-3.7-33.6-11.2c-2.6-3.2-4.1-7-4.6-11.4v-19h17.1V9.6h-17.1V4.5H246.3z"/>
		<rect x="197.3" class="st3" width="53.3" height="64"/>
	</g>
	<g id="セ" class="st1">
		<path d="M374.7,4.5v4.8h-5.4v8.2h5.4v9.4h-5.4v21.5c0,6.7-2.8,11.1-8.5,11.1h-31.4v-8.9H352c4.1,0,6.1-2.9,6-8.7v-15h-15.8
			c0,0-0.2,1.1-0.2,2.5c-0.1,6.4,2.6,10.6,7.7,11.6v3.7c-13.9,1.2-20.1-6.7-20.1-18.5v-8.7H358V9.3h-28.4V4.5H374.7z"/>
		<rect x="325.3" class="st3" width="53.3" height="64"/>
	</g>
	<g id="_xA6_" class="st1">
		<path d="M419.9,34.6H412v21.6h7.9V34.6z M419.9,26.7V7.9H412v18.8C412,26.7,419.9,26.7,419.9,26.7z"/>
		<rect x="389.3" class="st3" width="53.3" height="64"/>
	</g>
	<g id=":" class="st1">
		<path d="M487.7,40h-15.5v11.1h15.5V40z M487.7,23.9v-11h-15.5V24h15.5V23.9z"/>
		<rect x="453.3" class="st3" width="53.3" height="64"/>
	</g>
	<g id="_x22_" class="st1">
		<path d="M27.5,107.3H17.1l3.4-22.7h10.3L27.5,107.3z M43.5,107.3H33.1l3.5-22.7h10.3L43.5,107.3z"/>
		<rect x="5.3" y="64" class="st3" width="53.3" height="64"/>
	</g>
	<g id="_xA78A_" class="st1">
		<path d="M85.4,93.2h21.2V82.4H85.4V93.2z M85.4,98.8v10.9h21.2V98.8H85.4z"/>
		<rect x="69.3" y="64" class="st3" width="53.3" height="64"/>
	</g>
	<g id="ミ" class="st1">
		<path d="M182.5,115.4l-45.1,3.9v-9.1l45.1-4.7V115.4z M182.5,82.5l-45.1,4v-9.1l45.1-4.8V82.5z M179.1,98.6l-37.9,3.7v-8.5
			l37.9-4.4V98.6z"/>
		<rect x="133.3" y="64" class="st3" width="53.3" height="64"/>
	</g>
	<g id="ラ" class="st1">
		<path d="M233,118.1c-11.1,0-19.7-3.2-25.8-9.7c-2.5-2.6-4.3-5.8-5.5-9.7V86.9h44.6v8.2h-32c0.6,7.3,4.2,12.5,10.8,15.6
			c4.2,2,13.6,2.9,18.5,2.9v4.5H233z M203.6,73.9V81h40.2v-7.1H203.6z"/>
		<rect x="197.3" y="64" class="st3" width="53.3" height="64"/>
	</g>
	<g id="リ" class="st1">
		<path d="M266.6,71.8h12.6c-0.9,14,2.7,44.3,28.2,42.7v5.5C272,121,264.5,95.9,266.6,71.8z M309.5,95.8h-13.3l-0.2-24h13.8
			L309.5,95.8z"/>
		<rect x="261.3" y="64" class="st3" width="53.3" height="64"/>
	</g>
	<g id="_x254C_" class="st1">
		<path d="M377.5,92.2h-20.7v7.7h20.7V92.2z M347.2,99.8v-7.7h-20.7v7.7H347.2z"/>
		<rect x="325.3" y="64" class="st3" width="53.3" height="64"/>
	</g>
	<g id="ツ" class="st1">
		<path d="M393.5,72.9H405v15.7c0,11.9,5.1,19.7,15.4,23.5c4.1,1.6,9.2,2.4,15.3,2.2v5c-17.7,0-30-4.7-36.9-14.1
			c-3-3.9-4.7-8.7-5.2-14.1L393.5,72.9L393.5,72.9z M413,72.7h10.5l-2.9,22.6h-10.4L413,72.7 M435.6,95.3h-10.4l2.9-22.6h10.4
			L435.6,95.3z"/>
		<rect x="389.3" y="64" class="st3" width="53.3" height="64"/>
	</g>
	<g id="テ" class="st1">
		<path d="M466.7,95.2h-9.2v-8.1h45.1v8.1h-19.4c-1.3,13.8,6.7,19.4,16.4,19.2v4.6c-19.8,1.8-27.2-10.9-28.6-15.7
			C468.8,95.6,468.6,95.2,466.7,95.2z M457.6,73v7.9h44.5V73H457.6z"/>
		<rect x="453.3" y="64" class="st3" width="53.3" height="64"/>
	</g>
	<g id="ニ" class="st1">
		<path d="M54.3,172.2H9.7v9.5h44.7v-9.5H54.3z M52.7,147.7v-9.4H12.2v9.4H52.7z"/>
		<rect x="5.3" y="128" class="st3" width="53.3" height="64"/>
	</g>
	<g id="ハ" class="st1">
		<path d="M74.8,183.7l6.9-47.4h10.9l-6.9,47.4L74.8,183.7L74.8,183.7z M97.6,136.3c0,25.2,8.9,41.8,15.9,45.2l3.7-5.6
			c-3.1-2.9-5.3-9.5-6.6-19.9c-0.7-5.5-1.1-12.3-1.1-19.7H97.6z"/>
		<rect x="69.3" y="128" class="st3" width="53.3" height="64"/>
	</g>
	<g id="ソ" class="st1">
		<path d="M137.1,135.8h12.6c-0.4,9.1,0,43.9,28.2,42.7v5.5c-18,1.1-41.4-7.2-41.2-40.6L137.1,135.8 M163.8,159.8l5.6-24h13.8
			l-6.1,24H163.8z"/>
		<rect x="133.3" y="128" class="st3" width="53.3" height="64"/>
	</g>
	<g id="_x25AA_" class="st1">
		<path d="M231.4,165.1v-10.2h-14.9v10.2H231.4z"/>
		<rect x="197.3" y="128" class="st3" width="53.3" height="64"/>
	</g>
	<g id="_x2014_" class="st1">
		<path d="M309.2,163.9v-7.8h-42.4v7.8H309.2z"/>
		<rect x="261.3" y="128" class="st3" width="53.3" height="64"/>
	</g>
	<g id="_x3C_" class="st1">
		<path d="M347.7,160l22.4,15.4H357L334,160l23-15.5h13.1L347.7,160z"/>
		<rect x="325.3" y="128" class="st3" width="53.3" height="64"/>
	</g>
	<g id="_x3E_" class="st1">
		<path d="M420.4,160.1L398,144.6h13.1l23,15.5l-23,15.3H398L420.4,160.1z"/>
		<rect x="389.3" y="128" class="st3" width="53.3" height="64"/>
	</g>
	<g id="_x30_" class="st1">
		<path d="M471.1,135.6h17.7c9.3,1.9,14,6.2,14,12.8v23.2c0,6.7-4.7,11-14,12.7h-17.7c-9.3-1.7-14-6-14-12.7v-23.2
			C457.2,141.8,461.8,137.5,471.1,135.6 M478.8,179l1,0.2h0.2c4.8-0.4,7.2-3.2,7.2-8.2v-17.9l-12.9,23.2c0.8,1.1,2,1.9,3.6,2.4
			L478.8,179 M480.2,141.6h-0.7c-4.6,0.1-6.9,2.6-6.9,7.5v17.7l12.4-23.6C483.8,142.1,482.2,141.5,480.2,141.6z"/>
		<rect x="453.3" y="128" class="st3" width="53.3" height="64"/>
	</g>
	<g id="_x7C_" class="st1">
		<path d="M36,199h-8v50h8V199z"/>
		<rect x="5.3" y="192" class="st3" width="53.3" height="64"/>
	</g>
	<g id="_x2B_" class="st1">
		<polygon points="113.2,220.4 99.6,220.4 99.6,206.8 92.4,206.8 92.4,220.4 78.8,220.4 78.8,227.6 92.4,227.6 92.4,241.2 
			99.6,241.2 99.6,227.6 113.2,227.6 		"/>
		<rect x="69.3" y="192" class="st3" width="53.3" height="64"/>
	</g>
	<g id="_x2A_" class="st1">
		<path d="M178.2,218.6l-11.1,5.2l11.2,5.1l-2.4,5.4l-12-5.5v10.6h-8V229l-11.6,5.5l-2.5-5.4l11.2-5.2l-11.2-5.1l2.3-5.5l11.8,5.4
			v-9.9h8v10l11.9-5.6L178.2,218.6z"/>
		<rect x="133.3" y="192" class="st3" width="53.3" height="64"/>
	</g>
	<g id="コ" class="st1">
		<path d="M241,210.4h-31.4v27.3h37.2v8.9h-45.6v-45.1H241V210.4z"/>
		<rect x="197.3" y="192" class="st3" width="53.3" height="64"/>
	</g>
	<g id="シ" class="st1">
		<path d="M287.2,198.6v6.3h24v-6.3H287.2z M287.2,213.3v6.3h24v-6.3H287.2z M263.7,213.4l0.1-2.5h5.6c-0.8,21.1,21.6,27,43,26.4
			v11.8C279.6,252.5,263.6,235.9,263.7,213.4z"/>
		<rect x="261.3" y="192" class="st3" width="53.3" height="64"/>
	</g>
	<g id="マ" class="st1">
		<path d="M330.3,202.4c0,15.2,3.5,25.6,10.5,31.4c2.9,2.4,6.4,3.8,10.4,4.2l-3.3,7.6h13.2l10.3-23.4h-13.1l-4.6,9.8
			c-7.2-2-10.8-7.9-10.8-17.7c0,0,0.1-3.2,0.4-4.1h30.4v-7.6L330.3,202.4z"/>
		<rect x="325.3" y="192" class="st3" width="53.3" height="64"/>
	</g>
	<g id="ム" class="st1">
		<path d="M413.2,201.9h13L441,246h-18.6l-18.6-3.7l-1.2,3.5H391v-3.2l9.9-25.8h12.5l-6.4,17l18.3,3.4L413.2,201.9z"/>
		<rect x="389.3" y="192" class="st3" width="53.3" height="64"/>
	</g>
	<g id="メ" class="st1">
		<path d="M480.7,223.4l16.2-6.6v-9l-18.5,7c-0.8-4.2-1.2-8.7-1.2-13h-13.7c-0.2,6.6,0.6,12.6,2.3,17.8l-8.4,3.2v10l12.2-4.9
			c6.9,11.4,19,17.8,33.1,18.3V241C491.6,241.3,484.5,233.8,480.7,223.4z"/>
		<rect x="453.3" y="192" class="st3" width="53.3" height="64"/>
	</g>
	<g id="モ" class="st1">
		<path d="M31.9,271.3c0.6,0,1.4,0.5,1.4,1.4v5.1c0,1-0.3,1.6-1.4,1.8H9.7v8.1h22.2c0.7,0,1.3,0.4,1.4,1.6v8.5
			c0,2.3-2.4,5.1-4.6,5.1h-19v8.4h27.1c5.7,0,8.4-7,8.4-12.1v-11.1h9.2v-8.2h-9.2v-8.7h8.4v-6.4H9.7v6.6L31.9,271.3L31.9,271.3z"/>
		<rect x="5.3" y="256" class="st3" width="53.3" height="64"/>
	</g>
	<g id="エ" class="st1">
		<rect x="69.3" y="256" class="st3" width="53.3" height="64"/>
		<path d="M102,275.1v24.7h16.7v8.9H73.3v-8.9H90v-24.7H75.5v-7.8h40.9v7.8H102z"/>
	</g>
	<g id="ヤ" class="st1">
		<path d="M135.5,267.3h29.6l0.4-3.8h12.4l-0.5,3.8h7.1v8.6h-8.1l-3.8,31.7h11.9v5h-44.4v-5h20.7l3.3-31.7h-14.9
			c0,7.9,3.1,14,9.4,18.2v4.1C143.8,298.7,135.5,285.8,135.5,267.3z"/>
		<rect x="133.3" y="256" class="st3" width="53.3" height="64"/>
	</g>
	<g id="キ" class="st1">
		<path d="M220.5,263.7h12.6l-0.9,7.2h14.4v8.1h-15.5l-1.7,12.6h17.1v8.1h-18.1l-1.6,12.6h-12.6l1.6-12.6h-14.5v-8.1H217l1.7-12.6
			h-17.2v-8.1h18.3L220.5,263.7z"/>
		<rect x="197.3" y="256" class="st3" width="53.3" height="64"/>
	</g>
	<g id="オ" class="st1">
		<path d="M310.7,260.5v5.2h-25v8.4h23.4v8.3h-18.6c0.2,5,1.2,9.7,3.1,14.1c3.4,7.6,8.8,12.2,16.4,14v4.5c-3.2,0.1-6.2-0.4-9.2-1.3
			c-7-2.4-12.4-7.2-16.2-14.3l-1.4,16.1h-11.5v-14.2c0.8-2.2,1.4-8.5,1.8-18.7h-8.2v-8.3h8.2v-8.4h-8.2v-5.2h45.4V260.5z"/>
		<rect x="261.3" y="256" class="st3" width="53.3" height="64"/>
	</g>
	<g id="カ" class="st1">
		<path d="M364.6,279.1c-0.7,16.2,3.2,28.2,9.8,28.7v4.6h-2.8c-7.7-1.7-19.8-9-19.8-33.3H343c-1.2,0-2.4,1.3-2.4,2.9v19.9
			c0,1.7,1,2.6,2.4,2.6h6.8v7.9h-11.6c-4.8,0-8.8-3.3-8.8-9.2v-32h22.4v-7.5h12.7v7.5h7.8v7.9H364.6z"/>
		<rect x="325.3" y="256" class="st3" width="53.3" height="64"/>
	</g>
	<g id="_x37_" class="st1">
		<path d="M427.7,291.7l-2.1,4.1l-1.9,4.1v12.4h-15.6v-12.6c0-2.9,5-11.1,15-24.5v-5.9h-29.7v-5.6h45.1v11.5
			C434.7,279.7,431,285.2,427.7,291.7z"/>
		<rect x="389.3" y="256" class="st3" width="53.3" height="64"/>
	</g>
	<g id="ケ" class="st1">
		<path d="M502.6,265.5v-5h-45.1v5h23.1v8.5h-23.2v8.7h8.3c-3.7,37.4,28.6,32.8,32.8,32.3v-4.7c-18.6,3.5-20.9-15.1-20-27.6h5.5
			c5.3,7.2,12.3,12.2,18.5,10.7V289c-4.7-0.8-9.3-9-10-14.4v-9.1H502.6z"/>
		<rect x="453.3" y="256" class="st3" width="53.3" height="64"/>
	</g>
	<g id="サ" class="st1">
		<path d="M46,371.3v4.9c0,0-1.8,0.2-4.2,0.2c-11.6,0-18.5-3.2-23-9.7c-2.9-4.2-4.4-8.9-4.4-15.5c0-2,0.2-3.6,0.2-3.6H9.4v-8.8h5.2
			v-11.1h12.1v11.1H36V328h11.8v10.8h6.8v8.8h-7v10.1H35.5v-10.1H26c0,0-0.2,1.3-0.2,4c0,7.6,1.9,13.2,6.2,16.6S43.1,371.9,46,371.3
			z"/>
		<rect x="5.3" y="320" class="st3" width="53.3" height="64"/>
	</g>
	<g id="ス" class="st1">
		<path d="M94.5,338.8c0.4,13.2,4.6,22.4,12.4,27.4c3.2,2.1,7,3.2,11.5,3.6v4.7c-11.4,0-20.5-3.4-27.3-10.3l-6.7,10.4H73.6v-2.3
			l10.6-18.6c-2.2-2.6-4.6-17-4.6-24.1h38.9v9.4h-24V338.8z"/>
		<rect x="69.3" y="320" class="st3" width="53.3" height="64"/>
	</g>
	<g id="Z" class="st1">
		<path d="M137.3,327.7h45.4v5.4l-30.3,37.8h30.3v5.4h-45.4v-5.4l30.3-37.8h-30.3L137.3,327.7L137.3,327.7z"/>
		<rect x="133.3" y="320" class="st3" width="53.3" height="64"/>
	</g>
	<g id="_x31_" class="st1">
		<path d="M219.8,378.8v-42.3h-7.5V331l15.3-5.7h7.9v53.5H219.8z"/>
		<rect x="197.3" y="320" class="st3" width="53.3" height="64"/>
	</g>
	<g id="_x35_" class="st1">
		<path d="M310.5,349.3H288c-2,0-3.8,0.5-5.3,1.6s-2.2,2.3-2.2,3.8v10.9c0,1.5,0.7,2.8,2.2,3.8c1.5,1.1,3.2,1.6,5.3,1.6h7.5
			c4.6,0,7.1-1.8,7.5-5.4h7.5c-1.1,7.2-6.1,10.8-15,10.8h-15c-4.1,0-7.6-1.1-10.5-3.2c-3-2.1-4.4-4.7-4.4-7.6v-10.9
			c0-3,1.5-5.5,4.4-7.6s6.5-3.2,10.6-3.2h15V333h-30v-5.4h45v21.7H310.5z"/>
		<rect x="261.3" y="320" class="st3" width="53.3" height="64"/>
	</g>
	<g id="_x32_" class="st1">
		<path d="M359.5,333H352c-2,0-3.8,0.5-5.3,1.6s-2.2,2.3-2.2,3.8v2.7c0,3.8,4.8,8.6,14.5,14.6l1,0.6c7.9,4.9,14.5,11.9,14.5,14.6
			v5.4h-45V371h30v-0.5c0-3.4-4.8-8.1-14.5-14.1l-1-0.6c-9.7-6-14.2-10.8-14.2-14.6v-1c0-3.4,1.5-6.4,4.4-8.8
			c2.9-2.5,6.1-3.7,10.2-3.7h15c8.8,0,13.8,3.6,15,10.8H367C366.6,334.8,364.1,333,359.5,333z"/>
		<rect x="325.3" y="320" class="st3" width="53.3" height="64"/>
	</g>
	<g id="ヨ" class="st1">
		<path d="M393.2,327.7v48.6h45.6v-48.6H393.2z M430.4,335v14.3h-28.8V335H430.4z M401.6,369v-14.3h28.8V369H401.6z"/>
		<rect x="389.3" y="320" class="st3" width="53.3" height="64"/>
	</g>
	<g id="タ" class="st1">
		<path d="M495,328.7h-37.5v12.6c-0.3,27.2,20.3,35.8,41.9,33.6V370c-12.5,0.8-19.5-4.1-22-7.5c-0.9-1.2-0.8-3.4,0.2-3.7l12.2-4.2
			v-7.2l-15.6,3.7c-3,0.7-3.4,0.9-3.4-14h14.5c3.6,8.5,11,15.6,17.1,15.6v-5.5C499.2,345,495,337.6,495,328.7z"/>
		<rect x="453.3" y="320" class="st3" width="53.3" height="64"/>
	</g>
	<g id="ワ" class="st1">
		<path d="M19.8,401.1v7.4c0,11.9,4,19.7,12.1,23.5c3.2,1.6,7.2,2.4,12,2.2v5c-14.5,0-24.6-4.7-30.2-14.1c-2.5-3.9-3.9-8.7-4.3-14.1
			v-18.2h45.4v20H44.2v-11.6L19.8,401.1L19.8,401.1z"/>
		<rect x="5.3" y="384" class="st3" width="53.3" height="64"/>
	</g>
	<g id="_x34_" class="st1">
		<path d="M73.6,421.9V416l29.1-26.5h15.9v53.1H73.4v-5h29.7v-15.7H73.6 M81.2,416h21.6v-19.8L81.2,416z"/>
		<rect x="69.3" y="384" class="st3" width="53.3" height="64"/>
	</g>
	<g id="ネ" class="st1">
		<path d="M166,393.5c0,1.1,0.1,2,1.5,2.5h15v8.6h-29c0.5,3.4,2.2,6.5,5.2,9.5c5.1,5.2,13,8.7,23.7,10.4v5.2
			c-8.1-0.7-13.6-1.7-16.5-2.9v11.6h16.5v5h-45.1v-5h16.6v-14.2l-16.4,7.3v-9.4l10.5-5c-4.7-3.9-7.8-8.7-9.5-14.2
			c-0.7-2.2-1.2-4.5-1.2-6.9h14.9c1.2,0,1.7-0.8,1.7-2.7v-4.7h12v4.9H166z"/>
		<rect x="133.3" y="384" class="st3" width="53.3" height="64"/>
	</g>
	<g id="ヌ" class="st1">
		<path d="M235.2,407.9v10.3l-10.9,4.8c5.4,6.6,12.9,10.2,22.3,10.9v5.3c-13.4-0.1-24.2-4.1-32.5-11.8l-12.7,5.7v-10.3l6.7-3
			c-4.3-7.2-6.4-16.3-6.4-27.1h43.1v8.7h-29c0.4,4.7,1.6,9.2,3.6,13.4L235.2,407.9z"/>
		<rect x="197.3" y="384" class="st3" width="53.3" height="64"/>
	</g>
	<g id="ナ" class="st1">
		<path d="M276,391.7h13.2V403h21.3v8.7h-21.3c-0.3,5,0.7,22.7,18.7,23.8v4.5c-17.1,1.4-30.7-8.4-32-28.3h-10.4V403H276V391.7z"/>
		<rect x="261.3" y="384" class="st3" width="53.3" height="64"/>
	</g>
	<g id="_x39_" class="st1">
		<path d="M343.1,391.7h17.7c9.3,1.9,14,6.2,14,12.8v7.8c0,4.5-2.3,7.8-6.8,9.9c-2.6,1.1-4.9,1.7-6.9,1.7h-5h-6.7
			c-1.4,0-2.8-1.1-4.4-3.2c-0.4,5.6,1.7,9.5,6.2,11.9c2.9,1.6,6.8,2.4,11.7,2.4l2.2-0.1l2-0.1v5.4h-13.9c-8.6,0-15.1-2.9-19.8-8.8
			c-1.9-2.5-3.2-5.4-4.1-8.7v-18.3C329.2,397.9,333.9,393.6,343.1,391.7 M352.2,397.5h-0.7c-4.7,0.1-7,2.6-7,7.7l0.1,5.5
			c0,3.3,1.2,5.7,3.6,7.1c1.1,0.7,2.2,1.1,3.6,1.1h0.3c4.9-0.5,7.2-3.2,7.1-8.2v-5.5c0-3.4-1.2-5.6-3.5-6.7L352.2,397.5z"/>
		<rect x="325.3" y="384" class="st3" width="53.3" height="64"/>
	</g>
	<g id="_x38_" class="st1">
		<path d="M407.2,391.5h17.6c9.3,1.9,14,6.2,14,12.8c0,4.6-2.2,7.8-6.7,9.8c-2.4,1.1-4.7,1.7-6.9,1.8l3.4,0.6l3.6,1.2
			c4.5,2,6.7,5.3,6.7,9.8c0,6.6-4.7,10.9-14,12.8h-17.6c-9.4-1.9-14.1-6.2-14.1-12.8c0-4.5,2.3-7.8,6.8-9.8c2.4-1.1,4.7-1.7,6.9-1.8
			c-2.2-0.1-4.5-0.7-6.9-1.8c-4.6-2.1-6.8-5.3-6.8-9.8C393.2,397.8,397.9,393.5,407.2,391.5 M416.2,419h-0.7
			c-4.6,0.1-6.9,2.7-6.9,7.6c0,5.1,2.4,7.8,7.2,8.2h0.2c4.8-0.4,7.2-3.2,7.2-8.2C423.3,421.6,420.9,419.1,416.2,419 M416.2,397.4
			h-0.7c-4.6,0.1-6.9,2.7-6.9,7.6s2.4,7.7,7.2,8.2h0.2c4.8-0.6,7.2-3.3,7.2-8.2C423.3,400,420.9,397.5,416.2,397.4z"/>
		<rect x="389.3" y="384" class="st3" width="53.3" height="64"/>
	</g>
	<g id="ヒ" class="st1">
		<path d="M458.3,439.3h27.1c9.2,0,16.4-5.2,16.4-17.5v-29h-13.3v10.4h-30.2v8.7h29.8v9.6c0,4.7-4,9.6-8.8,9.6h-21V439.3z"/>
		<rect x="453.3" y="384" class="st3" width="53.3" height="64"/>
	</g>
	<g id="_x30__1_" class="st1">
		<path d="M23.1,455.6h17.7c9.3,1.9,14,6.2,14,12.8v23.2c0,6.7-4.7,11-14,12.7H23.1c-9.3-1.7-14-6-14-12.7v-23.2
			C9.2,461.8,13.8,457.5,23.1,455.6 M30.8,499l1,0.2H32c4.8-0.4,7.2-3.2,7.2-8.2v-17.9l-12.9,23.2c0.8,1.1,2,1.9,3.6,2.4L30.8,499
			 M32.2,461.6h-0.7c-4.6,0.1-6.9,2.6-6.9,7.5v17.7L37,463.2C35.8,462.1,34.2,461.5,32.2,461.6z"/>
		<rect x="5.3" y="448" class="st3" width="53.3" height="64"/>
	</g>
</g>
<polygon points="27.5,5.2 39.5,5.2 39.5,12.2 56,12.2 56,20.4 39.5,20.4 39.5,53.8 55.8,53.8 55.8,58.8 8,58.8 8,53.8 14.4,26.1 
	24,26.1 24,29 18.6,53.8 27.6,53.8 27.6,20.4 11,20.4 11,12.2 27.5,12.2 "/>
<path d="M55.9,51.6h-4.2c-6.2-5.1-9.4-13.6-9.4-25.7L52,26c-0.1,11.5,1.2,18.3,3.8,20.5L55.9,51.6L55.9,51.6z"/>
<path d="M94,41.7c5.7,8.6,13.9,12.8,24.5,12.8v-4.3c-8.2-1.5-12.3-6-12.3-13.5V24.2H93v12.1c-6.9,0.2-7.9-6.6-7.4-18.3h32.8V9.4
	H73.6v16c0,3,2.5,16.3,15.1,16.3C88.7,41.7,94,41.7,94,41.7z"/>
<path d="M137.3,51h30.2l-22.8-11v-5.8H160c2.2,0,3.9-0.6,5-1.8s1.7-2.2,1.7-3v-11c0-1.3-0.3-2.6-1.6-3.6c-1.3-0.9-3.3-1.2-5.1-1.2
	h-6.4c-6.2,0-7.3,3.3-8.6,4.8h-7.6c1.2-7.2,6.2-10.8,15.1-10.8h15.1c4.1,0,7.6,1.1,10.6,3.2s4.5,4.7,4.5,7.6v10.9
	c0,2.5-1.4,4.9-4.3,7.3s-6.5,3.6-10.8,3.6H160L182.6,51v5.4h-45.4L137.3,51L137.3,51z"/>
<path d="M201.3,4.5v5.2h17.1V18h-17.1v18.9c0.5,4.4,2,8.2,4.6,11.4c6.4,7.5,17.6,11.2,33.6,11.2v-4.8c-7.6,0-12.8-1.3-12.8-1.3
	c-8.6-2.5-12.8-7.7-12.8-15.6V26.5h21v11.6h11.8v-20h-17V9.8h16.6V4.5H201.3z"/>
<path d="M329.6,4.5v4.8H358v8.2h-28.4v8.7c0,11.8,6.2,19.7,20.1,18.5V41c-5.1-1-7.8-5.2-7.7-11.6c0-1.4,0.2-2.5,0.2-2.5H358v15
	c0.1,5.8-1.9,8.7-6,8.7h-22.7v8.9h31.4c5.7,0,8.5-4.5,8.5-11.1V26.9h5.4v-9.4h-5.4V9.3h5.4V4.5H329.6z"/>
<path d="M419.9,34.6H412v21.6h7.9V34.6z M419.9,26.7V7.9H412v18.8C412,26.7,419.9,26.7,419.9,26.7z"/>
<path d="M487.7,40h-15.5v11.1h15.5V40z M487.7,23.9v-11h-15.5V24h15.5V23.9z"/>
<path d="M27.5,107.3H17.1l3.4-22.7h10.3L27.5,107.3z M43.5,107.3H33.1l3.5-22.7h10.3L43.5,107.3z"/>
<path d="M85.4,93.2h21.2V82.4H85.4V93.2z M85.4,98.8v10.9h21.2V98.8H85.4z"/>
<path d="M182.5,115.4l-45.1,3.9v-9.1l45.1-4.7V115.4z M182.5,82.5l-45.1,4v-9.1l45.1-4.8V82.5z M179.1,98.6l-37.9,3.7v-8.5l37.9-4.4
	V98.6z"/>
<path d="M233,118.1c-11.1,0-19.7-3.2-25.8-9.7c-2.5-2.6-4.3-5.8-5.5-9.7V86.9h44.6v8.2h-32c0.6,7.3,4.2,12.5,10.8,15.6
	c4.2,2,13.6,2.9,18.5,2.9v4.5H233z M203.6,73.9V81h40.2v-7.1H203.6z"/>
<path d="M266.6,71.8h12.6c-0.9,14,2.7,44.3,28.2,42.7v5.5C272,121,264.5,95.9,266.6,71.8z M309.5,95.8h-13.3l-0.2-24h13.8
	L309.5,95.8z"/>
<path d="M377.5,92.2h-20.7v7.7h20.7V92.2z M347.2,99.8v-7.7h-20.7v7.7H347.2z"/>
<path d="M393.5,72.9H405v15.7c0,11.9,5.1,19.7,15.4,23.5c4.1,1.6,9.2,2.4,15.3,2.2v5c-17.7,0-30-4.7-36.9-14.1
	c-3-3.9-4.7-8.7-5.2-14.1L393.5,72.9L393.5,72.9z M413,72.7h10.5l-2.9,22.6h-10.4L413,72.7 M435.6,95.3h-10.4l2.9-22.6h10.4
	L435.6,95.3z"/>
<path d="M466.7,95.2h-9.2v-8.1h45.1v8.1h-19.4c-1.3,13.8,6.7,19.4,16.4,19.2v4.6c-19.8,1.8-27.2-10.9-28.6-15.7
	C468.8,95.6,468.6,95.2,466.7,95.2z M457.6,73v7.9h44.5V73H457.6z"/>
<path d="M54.3,172.2H9.7v9.5h44.7v-9.5H54.3z M52.7,147.7v-9.4H12.2v9.4H52.7z"/>
<path d="M74.8,183.7l6.9-47.4h10.9l-6.9,47.4L74.8,183.7L74.8,183.7z M97.6,136.3c0,25.2,8.9,41.8,15.9,45.2l3.7-5.6
	c-3.1-2.9-5.3-9.5-6.6-19.9c-0.7-5.5-1.1-12.3-1.1-19.7H97.6z"/>
<path d="M137.1,135.8h12.6c-0.4,9.1,0,43.9,28.2,42.7v5.5c-18,1.1-41.4-7.2-41.2-40.6L137.1,135.8 M163.8,159.8l5.6-24h13.8l-6.1,24
	H163.8z"/>
<rect x="216.5" y="154.9" width="14.9" height="10.2"/>
<rect x="266.8" y="156.1" width="42.4" height="7.8"/>
<polygon points="370.1,144.6 357,144.6 334,160.1 357,175.5 370.1,175.5 347.7,160 "/>
<polygon points="398,175.4 411.1,175.4 434.1,160.1 411.1,144.6 398,144.6 420.4,160.1 "/>
<path d="M471.1,135.6h17.7c9.3,1.9,14,6.2,14,12.8v23.2c0,6.7-4.7,11-14,12.7h-17.7c-9.3-1.7-14-6-14-12.7v-23.2
	C457.2,141.8,461.8,137.5,471.1,135.6 M478.8,179l1,0.2h0.2c4.8-0.4,7.2-3.2,7.2-8.2v-17.9l-12.9,23.2c0.8,1.1,2,1.9,3.6,2.4
	L478.8,179 M480.2,141.6h-0.7c-4.6,0.1-6.9,2.6-6.9,7.5v17.7l12.4-23.6C483.8,142.1,482.2,141.5,480.2,141.6z"/>
<rect x="28" y="199" width="8" height="50"/>
<polygon points="113.2,220.4 99.6,220.4 99.6,206.8 92.5,206.8 92.5,220.4 78.8,220.4 78.8,227.5 92.4,227.5 92.4,241.1 99.5,241.1 
	99.5,227.5 113.1,227.5 113.1,220.4 "/>
<polygon points="175.7,213.1 163.8,218.7 163.8,208.7 155.8,208.7 155.8,218.6 144,213.2 141.7,218.7 152.9,223.8 141.7,229 
	144.2,234.4 155.8,228.9 155.8,239.3 163.8,239.3 163.8,228.7 175.8,234.2 178.2,228.8 167,223.7 178.1,218.5 "/>
<polygon points="241,201.5 201.2,201.5 201.2,246.6 246.8,246.6 246.8,237.7 209.6,237.7 209.6,210.4 241,210.4 "/>
<path d="M287.2,198.6v6.3h24v-6.3H287.2z M287.2,213.3v6.3h24v-6.3H287.2z M263.7,213.4l0.1-2.5h5.6c-0.8,21.1,21.6,27,43,26.4v11.8
	C279.6,252.5,263.6,235.9,263.7,213.4z"/>
<path d="M330.3,202.4c0,15.2,3.5,25.6,10.5,31.4c2.9,2.4,6.4,3.8,10.4,4.2l-3.3,7.6h13.2l10.3-23.4h-13.1l-4.6,9.8
	c-7.2-2-10.8-7.9-10.8-17.7c0,0,0.1-3.2,0.4-4.1h30.4v-7.6L330.3,202.4z"/>
<polygon points="425.3,237.3 407,233.9 413.4,216.9 400.9,216.9 391,242.7 391,245.9 402.5,245.9 403.7,242.4 422.3,246.1 
	441,246.1 426.2,202 413.2,202 "/>
<path d="M480.7,223.4l16.2-6.6v-9l-18.5,7c-0.8-4.2-1.2-8.7-1.2-13h-13.7c-0.2,6.6,0.6,12.6,2.3,17.8l-8.4,3.2v10l12.2-4.9
	c6.9,11.4,19,17.8,33.1,18.3V241C491.6,241.3,484.5,233.8,480.7,223.4z"/>
<path d="M31.9,271.3c0.6,0,1.4,0.5,1.4,1.4v5.1c0,1-0.3,1.6-1.4,1.8H9.7v8.1h22.2c0.7,0,1.3,0.4,1.4,1.6v8.5c0,2.3-2.4,5.1-4.6,5.1
	h-19v8.4h27.1c5.7,0,8.4-7,8.4-12.1v-11.1h9.2v-8.2h-9.2v-8.7h8.4v-6.4H9.7v6.6L31.9,271.3L31.9,271.3z"/>
<polygon points="116.3,275.1 116.3,267.3 75.5,267.3 75.5,275.1 90,275.1 90,299.8 73.3,299.8 73.3,308.7 118.7,308.7 118.7,299.8 
	102,299.8 102,275.1 "/>
<path d="M158.5,298.2v-4.1c-6.2-4.2-9.4-10.2-9.4-18.2H164l-3.3,31.7H140v5h44.4v-5h-11.9l3.8-31.7h8.1v-8.6h-7.1l0.5-3.8h-12.4
	l-0.4,3.8h-29.6C135.5,285.8,143.8,298.7,158.5,298.2z"/>
<polygon points="219.7,270.9 201.4,270.9 201.4,279 218.6,279 216.9,291.6 201.3,291.6 201.3,299.7 215.8,299.7 214.2,312.3 
	226.8,312.3 228.4,299.7 246.5,299.7 246.5,291.6 229.4,291.6 231.1,279 246.6,279 246.6,270.9 232.2,270.9 233.1,263.7 
	220.5,263.7 "/>
<path d="M265.3,260.5v5.2h8.2v8.4h-8.2v8.3h8.2c-0.4,10.2-1,16.5-1.8,18.7v14.2h11.5l1.4-16.1c3.8,7.1,9.2,11.9,16.2,14.3
	c2.9,0.9,6,1.4,9.2,1.3v-4.5c-7.6-1.7-13-6.4-16.4-14c-1.9-4.4-2.9-9.1-3.1-14.1h18.6v-8.3h-23.4v-8.4h25v-5.2h-45.4V260.5z"/>
<path d="M372.4,279.1v-7.9h-7.8v-7.5h-12.7v7.5h-22.4v32c0,5.8,4,9.2,8.8,9.2h11.6v-7.9h-6.8c-1.4,0-2.4-0.9-2.4-2.6V282
	c0-1.6,1.2-2.9,2.4-2.9h8.8c0,24.2,12.1,31.6,19.8,33.3h2.8v-4.6c-6.7-0.4-10.6-12.4-9.8-28.7L372.4,279.1L372.4,279.1z"/>
<path d="M438.5,275.2v-11.5h-45.1v5.6h29.7v5.9c-10,13.4-15,21.5-15,24.5v12.6h15.6v-12.4l1.9-4.1l2.1-4.1
	C431,285.2,434.7,279.7,438.5,275.2z"/>
<path d="M502.6,265.5v-5h-45.1v5h23.1v8.5h-23.2v8.7h8.3c-3.7,37.4,28.6,32.8,32.8,32.3v-4.7c-18.6,3.5-20.9-15.1-20-27.6h5.5
	c5.3,7.2,12.3,12.2,18.5,10.7V289c-4.7-0.8-9.3-9-10-14.4v-9.1H502.6z"/>
<path d="M32,368.2c-4.3-3.4-6.2-9-6.2-16.6c0-2.8,0.2-4,0.2-4h9.5v10.1h12.1v-10.1h7v-8.8h-6.8V328H36v10.8h-9.3v-11.1H14.6v11.1
	H9.4v8.8h5.2c0,0-0.2,1.5-0.2,3.6c0,6.6,1.5,11.3,4.4,15.5c4.4,6.5,11.4,9.7,23,9.7c2.4,0,4.2-0.2,4.2-0.2v-4.9
	C43.1,371.9,36.3,371.5,32,368.2z"/>
<path d="M118.4,338.8v-9.4H79.6c0,7.1,2.4,21.5,4.6,24.1l-10.6,18.6v2.3h10.9l6.7-10.4c6.7,6.9,15.8,10.3,27.3,10.3v-4.7
	c-4.5-0.3-8.3-1.5-11.5-3.6c-7.8-5-11.9-14.1-12.4-27.4h23.8V338.8z"/>
<polygon points="137.3,327.7 182.7,327.7 182.7,333.1 152.4,370.9 182.7,370.9 182.7,376.3 137.3,376.3 137.3,370.9 167.6,333.1 
	137.3,333.1 137.3,327.7 "/>
<polygon points="219.8,378.8 219.8,336.5 212.3,336.5 212.3,331 227.6,325.3 235.5,325.3 235.5,378.8 "/>
<path d="M310.5,349.3H288c-2,0-3.8,0.5-5.3,1.6s-2.2,2.3-2.2,3.8v10.9c0,1.5,0.7,2.8,2.2,3.8c1.5,1.1,3.2,1.6,5.3,1.6h7.5
	c4.6,0,7.1-1.8,7.5-5.4h7.5c-1.1,7.2-6.1,10.8-15,10.8h-15c-4.1,0-7.6-1.1-10.5-3.2c-3-2.1-4.4-4.7-4.4-7.6v-10.9
	c0-3,1.5-5.5,4.4-7.6s6.5-3.2,10.6-3.2h15V333h-30v-5.4h45v21.7H310.5z"/>
<path d="M359.5,333H352c-2,0-3.8,0.5-5.3,1.6s-2.2,2.3-2.2,3.8v2.7c0,3.8,4.8,8.6,14.5,14.6l1,0.6c7.9,4.9,14.5,11.9,14.5,14.6v5.4
	h-45V371h30v-0.5c0-3.4-4.8-8.1-14.5-14.1l-1-0.6c-9.7-6-14.2-10.8-14.2-14.6v-1c0-3.4,1.5-6.4,4.4-8.8c2.9-2.5,6.1-3.7,10.2-3.7h15
	c8.8,0,13.8,3.6,15,10.8H367C366.6,334.8,364.1,333,359.5,333z"/>
<path d="M393.2,327.7v48.6h45.6v-48.6H393.2z M430.4,335v14.3h-28.8V335H430.4z M401.6,369v-14.3h28.8V369H401.6z"/>
<path d="M495,328.7h-37.5v12.6c-0.3,27.2,20.3,35.8,41.9,33.6V370c-12.5,0.8-19.5-4.1-22-7.5c-0.9-1.2-0.8-3.4,0.2-3.7l12.2-4.2
	v-7.2l-15.6,3.7c-3,0.7-3.4,0.9-3.4-14h14.5c3.6,8.5,11,15.6,17.1,15.6v-5.5C499.2,345,495,337.6,495,328.7z"/>
<path d="M44.2,401.1v11.6h10.4v-20H9.3v18.2c0.4,5.5,1.8,10.2,4.3,14.1c5.7,9.4,15.8,14.1,30.2,14.1v-5c-4.8,0.1-8.8-0.6-12-2.2
	c-8.1-3.8-12.1-11.6-12.1-23.5V401L44.2,401.1L44.2,401.1z"/>
<path d="M73.6,421.9V416l29.1-26.5h15.9v53.1H73.4v-5h29.7v-15.7H73.6 M81.2,416h21.6v-19.8L81.2,416z"/>
<path d="M166,388.6h-12v4.7c0.1,1.9-0.5,2.7-1.7,2.7h-14.9c0.1,2.4,0.5,4.7,1.2,6.9c1.6,5.6,4.8,10.3,9.5,14.2l-10.5,5v9.4l16.4-7.3
	v14.2h-16.6v5h45.1v-5H166v-11.6c2.9,1.2,8.4,2.2,16.5,2.9v-5.2c-10.7-1.7-18.6-5.2-23.7-10.4c-3-2.9-4.7-6.1-5.2-9.5h29V396h-15
	c-1.4-0.6-1.5-1.4-1.5-2.5v-4.9H166z"/>
<path d="M219.4,414.9c-2-4.2-3.2-8.7-3.6-13.4h29v-8.7h-43.1c-0.1,10.8,2.1,19.8,6.4,27.1l-6.7,3v10.3l12.7-5.7
	c8.3,7.7,19.1,11.7,32.5,11.8V434c-9.4-0.7-16.9-4.3-22.3-10.9l10.9-4.8V408L219.4,414.9z"/>
<path d="M276,403.1h-10.4v8.7H276c1.2,19.9,14.8,29.7,32,28.3v-4.5c-18-1.1-19-18.8-18.7-23.8h21.3v-8.7h-21.3v-11.3H276V403.1z"/>
<path d="M343.1,391.7h17.7c9.3,1.9,14,6.2,14,12.8v7.8c0,4.5-2.3,7.8-6.8,9.9c-2.6,1.1-4.9,1.7-6.9,1.7h-5h-6.7
	c-1.4,0-2.8-1.1-4.4-3.2c-0.4,5.6,1.7,9.5,6.2,11.9c2.9,1.6,6.8,2.4,11.7,2.4l2.2-0.1l2-0.1v5.4h-13.9c-8.6,0-15.1-2.9-19.8-8.8
	c-1.9-2.5-3.2-5.4-4.1-8.7v-18.3C329.2,397.9,333.9,393.6,343.1,391.7 M352.2,397.5h-0.7c-4.7,0.1-7,2.6-7,7.7l0.1,5.5
	c0,3.3,1.2,5.7,3.6,7.1c1.1,0.7,2.2,1.1,3.6,1.1h0.3c4.9-0.5,7.2-3.2,7.1-8.2v-5.5c0-3.4-1.2-5.6-3.5-6.7L352.2,397.5z"/>
<path d="M407.2,391.5h17.6c9.3,1.9,14,6.2,14,12.8c0,4.6-2.2,7.8-6.7,9.8c-2.4,1.1-4.7,1.7-6.9,1.8l3.4,0.6l3.6,1.2
	c4.5,2,6.7,5.3,6.7,9.8c0,6.6-4.7,10.9-14,12.8h-17.6c-9.4-1.9-14.1-6.2-14.1-12.8c0-4.5,2.3-7.8,6.8-9.8c2.4-1.1,4.7-1.7,6.9-1.8
	c-2.2-0.1-4.5-0.7-6.9-1.8c-4.6-2.1-6.8-5.3-6.8-9.8C393.2,397.8,397.9,393.5,407.2,391.5 M416.2,419h-0.7c-4.6,0.1-6.9,2.7-6.9,7.6
	c0,5.1,2.4,7.8,7.2,8.2h0.2c4.8-0.4,7.2-3.2,7.2-8.2C423.3,421.6,420.9,419.1,416.2,419 M416.2,397.4h-0.7c-4.6,0.1-6.9,2.7-6.9,7.6
	s2.4,7.7,7.2,8.2h0.2c4.8-0.6,7.2-3.3,7.2-8.2C423.3,400,420.9,397.5,416.2,397.4z"/>
<path d="M458.3,439.3h27.1c9.2,0,16.4-5.2,16.4-17.5v-29h-13.3v10.4h-30.2v8.7h29.8v9.6c0,4.7-4,9.6-8.8,9.6h-21V439.3z"/>
<path d="M23.1,455.6h17.7c9.3,1.9,14,6.2,14,12.8v23.2c0,6.7-4.7,11-14,12.7H23.1c-9.3-1.7-14-6-14-12.7v-23.2
	C9.2,461.8,13.8,457.5,23.1,455.6 M30.8,499l1,0.2H32c4.8-0.4,7.2-3.2,7.2-8.2v-17.9l-12.9,23.2c0.8,1.1,2,1.9,3.6,2.4L30.8,499
	 M32.2,461.6h-0.7c-4.6,0.1-6.9,2.6-6.9,7.5v17.7L37,463.2C35.8,462.1,34.2,461.5,32.2,461.6z"/>
</svg>
