<svg xmlns="http://www.w3.org/2000/svg" width="25" height="30" viewBox="0 0 25 30">
  <title>0</title>
  <g>
    <path d="M8.34717,3.55225h8.30566q6.54786,1.3623,6.54785,6.0205V20.47119q0,4.74609-6.54785,5.97656H8.34717q-6.54786-1.23046-6.54785-5.97656V9.57275q0-4.65819,6.54785-6.0205m3.60351,20.34668.4834.08789H12.522q3.38379-.30762,3.38379-3.82325V11.77L9.84131,22.66846A3.17568,3.17568,0,0,0,11.51123,23.811l.43945.0879m.65918-17.53418h-.30761q-3.252.08788-3.252,3.51562V18.186L14.85107,7.11182A3.06649,3.06649,0,0,0,12.60986,6.36475Z"/>
    <rect width="25" height="30" fill="none"/>
  </g>
</svg>
