<svg xmlns="http://www.w3.org/2000/svg" width="25" height="30" viewBox="0 0 25 30">
  <title>2</title>
  <g>
    <path d="M16.02249,6.10116H12.5a4.16125,4.16125,0,0,0-2.47192.7453A2.16009,2.16009,0,0,0,8.97751,8.63517V9.91708q0,2.63835,6.79779,6.84182l.47378.29812c3.69324,2.28374,6.7978,5.60149,6.7978,6.84182v2.54891H1.95312V23.89884H16.02249v-.22359q0-2.41476-6.79779-6.61823l-.47378-.29812C4.21905,13.95658,2.10207,11.676,2.10207,9.91708V9.43461A5.25693,5.25693,0,0,1,4.17231,5.29453a7.05787,7.05787,0,0,1,4.8052-1.74228h7.045q6.20041,0,7.02439,5.08292h-3.5225Q19.2772,6.10116,16.02249,6.10116Z"/>
    <rect width="25" height="30" fill="none"/>
  </g>
</svg>
