<svg xmlns="http://www.w3.org/2000/svg" width="25" height="30" viewBox="0 0 25 30">
  <title>3</title>
  <g>
    <path d="M1.86523,23.89884h14.1624L5.33691,18.75732V16.04338h7.15271a3.0391,3.0391,0,0,0,2.3633-.85873,2.40526,2.40526,0,0,0,.78164-1.38717V8.63838a1.88853,1.88853,0,0,0-.745-1.68287,4.27493,4.27493,0,0,0-2.39994-.563H9.46975c-2.92969,0-3.40811,1.55545-4.05614,2.24268H1.86523q.80928-5.08293,7.076-5.08292H16.038a8.33849,8.33849,0,0,1,4.98018,1.498A4.34063,4.34063,0,0,1,23.114,8.63517V13.733a4.60923,4.60923,0,0,1-2.0111,3.406,7.62846,7.62846,0,0,1-5.058,1.67692H12.5l10.614,5.08292.02075,2.54891H1.86523Z"/>
    <rect width="25" height="30" fill="none"/>
  </g>
</svg>
