<svg xmlns="http://www.w3.org/2000/svg" width="25" height="30" viewBox="0 0 25 30">
  <title>5</title>
  <g>
    <path d="M23.04688,13.733H12.5a4.14913,4.14913,0,0,0-2.48222.74529A2.16434,2.16434,0,0,0,8.97751,16.267v5.09783a2.16433,2.16433,0,0,0,1.04027,1.78871,4.14907,4.14907,0,0,0,2.48222.7453h3.52249q3.2547,0,3.50189-2.534h3.5225q-.80339,5.08293-7.02439,5.08292h-7.045a8.23517,8.23517,0,0,1-4.94385-1.498,4.34713,4.34713,0,0,1-2.08054-3.58488V16.267a4.35163,4.35163,0,0,1,2.07024-3.58487,8.2232,8.2232,0,0,1,4.95415-1.49805h7.045V6.10116H1.97372l-.0206-2.54891H23.04688Z"/>
    <rect width="25" height="30" fill="none"/>
  </g>
</svg>
