<svg xmlns="http://www.w3.org/2000/svg" width="25" height="30" viewBox="0 0 25 30">
  <title>8</title>
  <g>
    <path d="M8.39111,3.53027h8.26172q6.54786,1.36232,6.54785,6.02051A4.76449,4.76449,0,0,1,20.03662,14.165a8.35217,8.35217,0,0,1-3.252.835l1.582.26367,1.66992.57129a4.76449,4.76449,0,0,1,3.16406,4.61426q0,4.6582-6.54785,6.02051H8.39111q-6.59179-1.36231-6.59179-6.02051a4.818,4.818,0,0,1,3.208-4.61426A8.35222,8.35222,0,0,1,8.25928,15a8.35222,8.35222,0,0,1-3.252-.835,4.818,4.818,0,0,1-3.208-4.61426q0-4.6582,6.59179-6.02051m4.21875,12.876h-.30761q-3.252.08789-3.252,3.55957,0,3.55957,3.38379,3.86719H12.522q3.38379-.30762,3.38379-3.86719,0-3.51562-3.2959-3.55957m0-10.10742h-.30761q-3.252.08789-3.252,3.55957t3.38379,3.86719H12.522q3.38379-.39552,3.38379-3.86719Q15.90576,6.34278,12.60986,6.29883Z"/>
    <rect width="25" height="30" fill="none"/>
  </g>
</svg>
