<svg xmlns="http://www.w3.org/2000/svg" width="25" height="30" viewBox="0 0 25 30">
  <title>9</title>
  <g>
    <path d="M8.3252,3.59619h8.30566q6.54785,1.36232,6.54785,6.02051v3.64746a4.89944,4.89944,0,0,1-3.208,4.6582,8.43854,8.43854,0,0,1-3.252.791H11.26953q-.96679,0-2.06543-1.49414a5.35925,5.35925,0,0,0,2.90039,5.58105,11.344,11.344,0,0,0,5.49317,1.14258l1.01074-.04394.92285-.04395v2.54883H13.02734q-6.02051,0-9.27246-4.13086A11.71934,11.71934,0,0,1,1.82129,18.186V9.6167q0-4.6582,6.50391-6.02051M12.58789,6.3208h-.30762q-3.29589.044-3.2959,3.60352l.044,2.59277a3.59735,3.59735,0,0,0,1.66992,3.33984,3.30743,3.30743,0,0,0,1.66992.52735H12.5q3.42774-.35157,3.33984-3.86719V9.92432a3.167,3.167,0,0,0-1.626-3.16407Z"/>
    <rect width="25" height="30" fill="none"/>
  </g>
</svg>
