<svg xmlns="http://www.w3.org/2000/svg" width="25" height="30" viewBox="0 0 25 30">
  <title>サ</title>
  <g>
    <path d="M19.06982,24.03076v2.28516s-.85107.08789-1.97754.08789c-5.436,0-8.68652-1.52344-10.7666-4.57031a11.86958,11.86958,0,0,1-2.06543-7.251,15.1289,15.1289,0,0,1,.08789-1.66992H1.88721V8.78174H4.34814V3.59619h5.669V8.78174h4.35059V3.728h5.53711V8.78174h3.208V12.9126h-3.2959v4.74609H14.148V12.9126H9.70947a14.49049,14.49049,0,0,0-.08789,1.88965c0,3.57275.89112,6.19628,2.90039,7.77832A8.95942,8.95942,0,0,0,19.06982,24.03076Z"/>
    <rect width="25" height="30" fill="none"/>
  </g>
</svg>
