<svg xmlns="http://www.w3.org/2000/svg" width="25" height="30" viewBox="0 0 25 30">
  <title>ネ</title>
  <g>
    <path d="M15.33447,4.43115a1.04747,1.04747,0,0,0,.70313,1.18653h7.03125v4.043H9.48975a7.823,7.823,0,0,0,2.46093,4.43848q3.55957,3.69141,11.11817,4.87793V21.438a29.04217,29.04217,0,0,1-7.73438-1.36231V25.5249h7.73438V27.854H1.93115V25.5249H9.70947V18.84521L2.019,22.273V17.87842l4.92188-2.3291A13.55741,13.55741,0,0,1,2.50244,8.86963a10.82276,10.82276,0,0,1-.57129-3.252H8.91846c.55664,0,.82031-.39551.791-1.27442V2.146h5.625Z"/>
    <rect width="25" height="30" fill="none"/>
  </g>
</svg>
